<svg width="179" height="203" viewBox="0 0 179 203" fill="none" xmlns="http://www.w3.org/2000/svg">
<path d="M97.0622 105.882L97.06 105.884C90.7368 110.972 89.7352 120.222 94.8228 126.545L146.724 191.051C151.811 197.374 161.061 198.376 167.385 193.288L167.387 193.286C173.71 188.199 174.712 178.948 169.624 172.625L117.723 108.12C112.636 101.796 103.385 100.795 97.0622 105.882Z" fill="#E08600"/>
<path d="M158.19 197.041C155.912 197.046 153.662 196.539 151.607 195.557C149.551 194.575 147.742 193.144 146.315 191.369L94.406 126.867C91.8746 123.722 90.6966 119.699 91.1309 115.685C91.5652 111.671 93.5763 107.994 96.7218 105.463C99.8673 102.931 103.889 101.753 107.904 102.188C111.918 102.622 115.595 104.633 118.126 107.779L170.038 172.286C171.838 174.521 172.969 177.22 173.301 180.071C173.633 182.922 173.151 185.809 171.913 188.398C170.674 190.987 168.728 193.173 166.3 194.703C163.872 196.234 161.061 197.046 158.19 197.047V197.041ZM106.262 103.17C103.59 103.171 100.974 103.927 98.7137 105.351C96.4539 106.776 94.643 108.811 93.4902 111.22C92.3375 113.63 91.8899 116.317 92.199 118.971C92.5082 121.624 93.5617 124.136 95.2376 126.216L147.146 190.718C148.314 192.167 149.755 193.373 151.389 194.266C153.022 195.159 154.816 195.721 156.667 195.921C158.517 196.121 160.389 195.954 162.176 195.43C163.962 194.906 165.628 194.036 167.078 192.868C168.528 191.701 169.734 190.259 170.627 188.626C171.519 186.992 172.082 185.199 172.281 183.348C172.481 181.497 172.314 179.625 171.791 177.839C171.267 176.052 170.396 174.387 169.229 172.937L117.32 108.438C115.989 106.788 114.305 105.457 112.391 104.545C110.477 103.633 108.382 103.163 106.262 103.17Z" fill="black"/>
<path d="M114.439 111.638L99.1888 123.908C94.4624 127.711 93.7138 134.625 97.5166 139.351L105.795 149.641C109.598 154.367 116.512 155.116 121.239 151.313L136.489 139.043C141.215 135.24 141.964 128.326 138.161 123.599L129.882 113.31C126.079 108.584 119.165 107.835 114.439 111.638Z" fill="white"/>
<path d="M114.366 154.25C112.643 154.252 110.941 153.866 109.387 153.122C107.832 152.377 106.465 151.292 105.387 149.948L97.1075 139.661C95.1977 137.28 94.3097 134.24 94.6382 131.205C94.9666 128.171 96.4848 125.391 98.8598 123.474L114.108 111.206C116.488 109.294 119.529 108.405 122.564 108.734C125.599 109.062 128.379 110.582 130.295 112.958L138.574 123.245C140.484 125.626 141.372 128.666 141.044 131.7C140.715 134.735 139.197 137.515 136.822 139.431L121.573 151.7C119.534 153.351 116.99 154.251 114.366 154.25ZM121.315 109.732C118.936 109.725 116.626 110.535 114.771 112.026L99.5223 124.298C98.451 125.159 97.5599 126.224 96.9001 127.43C96.2403 128.637 95.8246 129.961 95.6768 131.328C95.529 132.695 95.6519 134.078 96.0387 135.397C96.4254 136.717 97.0683 137.947 97.9306 139.018L106.225 149.3C107.965 151.458 110.49 152.837 113.246 153.135C116.002 153.433 118.764 152.625 120.925 150.888L136.174 138.62C138.331 136.879 139.711 134.354 140.009 131.598C140.308 128.842 139.501 126.081 137.765 123.919L129.486 113.629C128.504 112.408 127.259 111.423 125.845 110.749C124.431 110.074 122.882 109.726 121.315 109.732Z" fill="black"/>
<path d="M69.5128 137.613C107.23 137.613 137.806 107.037 137.806 69.3204C137.806 31.6034 107.23 1.02765 69.5128 1.02765C31.7958 1.02765 1.22009 31.6034 1.22009 69.3204C1.22009 107.037 31.7958 137.613 69.5128 137.613Z" fill="#E08600" fill-opacity="0.51"/>
<path d="M69.5157 138.158C31.5651 138.158 0.686646 107.271 0.686646 69.329C0.686646 31.387 31.5651 0.5 69.5157 0.5C107.466 0.5 138.345 31.3727 138.345 69.329C138.345 107.285 107.463 138.158 69.5157 138.158ZM69.5157 1.56972C32.1501 1.56972 1.75063 31.9692 1.75063 69.3348C1.75063 106.7 32.1501 137.103 69.5157 137.103C106.881 137.103 137.284 106.703 137.284 69.3348C137.284 31.9663 106.881 1.55538 69.5157 1.55538V1.56972Z" fill="black"/>
<path d="M69.5128 113.305C93.8048 113.305 113.497 93.6125 113.497 69.3205C113.497 45.0285 93.8048 25.3359 69.5128 25.3359C45.2208 25.3359 25.5282 45.0285 25.5282 69.3205C25.5282 93.6125 45.2208 113.305 69.5128 113.305Z" fill="white"/>
<path d="M65.5903 36.3362L61.0144 98.947L62.067 99.0239L66.6429 36.4131L65.5903 36.3362Z" fill="black"/>
<path d="M75.0866 61.9859L72.6295 80.9822L73.6762 81.1176L76.1332 62.1213L75.0866 61.9859Z" fill="black"/>
<path d="M131.539 66.8052C131.071 66.804 130.619 66.6334 130.267 66.325C129.915 66.0167 129.686 65.5913 129.623 65.1275C127.08 46.1995 118.487 31.3726 104.082 21.0769C93.2817 13.3566 83.0692 11.2114 82.9688 11.1885C82.466 11.087 82.0242 10.7899 81.7405 10.3626C81.4568 9.93525 81.3545 9.41274 81.456 8.90998C81.5575 8.40722 81.8547 7.96538 82.282 7.68167C82.7093 7.39797 83.2318 7.29563 83.7345 7.39717C84.1791 7.48607 94.7357 9.69147 106.193 17.8305C116.775 25.3529 130.097 39.5747 133.458 64.6113C133.492 64.8629 133.476 65.1189 133.412 65.3644C133.347 65.61 133.234 65.8403 133.08 66.0423C132.926 66.2442 132.734 66.4138 132.514 66.5413C132.295 66.6688 132.052 66.7516 131.8 66.7852C131.714 66.7989 131.627 66.8056 131.539 66.8052Z" fill="white"/>
<path d="M39.7356 124.842C39.4372 124.843 39.1428 124.774 38.8753 124.642C24.3868 117.492 16.2621 105.332 12.0004 96.3903C7.39746 86.7427 6.20729 78.8475 6.15854 78.5148C6.11195 78.2591 6.11735 77.9966 6.17441 77.743C6.23146 77.4894 6.33901 77.2499 6.49063 77.0387C6.64226 76.8276 6.83485 76.6491 7.05692 76.514C7.279 76.379 7.52601 76.2899 7.78322 76.2524C8.04043 76.2148 8.30258 76.2294 8.55402 76.2954C8.80546 76.3613 9.04104 76.4772 9.24673 76.6361C9.45241 76.7951 9.62397 76.9938 9.75118 77.2205C9.87839 77.4472 9.95864 77.6972 9.98715 77.9556C9.98715 78.0301 11.1658 85.6988 15.5451 94.8388C19.5458 103.187 27.1371 114.535 40.5874 121.172C40.979 121.365 41.2936 121.686 41.4799 122.081C41.6662 122.476 41.7134 122.923 41.6137 123.348C41.514 123.774 41.2733 124.153 40.9307 124.424C40.5882 124.696 40.164 124.843 39.727 124.842H39.7356Z" fill="white"/>
<path d="M57.7775 150.398C36.7703 150.398 22.6804 141.915 14.3377 134.421C4.44356 125.531 0.391247 116.354 0.222043 115.975C0.147883 115.804 0.144743 115.61 0.213317 115.437C0.28189 115.263 0.416558 115.124 0.587695 115.05C0.758832 114.976 0.952418 114.973 1.12587 115.041C1.29932 115.11 1.43843 115.245 1.51259 115.416C1.55274 115.508 5.63659 124.739 15.3214 133.417C24.2434 141.41 39.8934 150.556 63.7885 148.763C63.8808 148.756 63.9737 148.766 64.0618 148.795C64.1499 148.823 64.2314 148.869 64.3016 148.929C64.3718 148.99 64.4293 149.063 64.4707 149.146C64.5121 149.229 64.5366 149.319 64.5428 149.412C64.5498 149.504 64.5386 149.596 64.5099 149.684C64.4811 149.772 64.4353 149.853 64.3751 149.923C64.3149 149.993 64.2415 150.051 64.159 150.092C64.0766 150.134 63.9867 150.159 63.8946 150.166C61.7915 150.325 59.7525 150.402 57.7775 150.398Z" fill="black"/>
</svg>
